{
    "asset": {
        "version": "2.0",
        "generator": "Open Asset Import Library (assimp v5.2.cf7d3637)"
    },
    "extensionsUsed": [
        "KHR_materials_volume",
        "FB_ngon_encoding"
    ],
    "accessors": [
        {
            "bufferView": 0,
            "byteOffset": 0,
            "componentType": 5126,
            "count": 26742,
            "type": "VEC3",
            "max": [
                31.0,
                12.0,
                56.3380012512207
            ],
            "min": [
                -29.097999572753908,
                -13.399999618530274,
                0.0
            ]
        },
        {
            "bufferView": 1,
            "byteOffset": 0,
            "componentType": 5126,
            "count": 26742,
            "type": "VEC3",
            "max": [
                1.0,
                0.9968129992485046,
                1.0
            ],
            "min": [
                -1.0,
                -0.9963526129722595,
                -1.0
            ]
        },
        {
            "bufferView": 2,
            "byteOffset": 0,
            "componentType": 5125,
            "count": 26742,
            "type": "SCALAR",
            "max": [
                26741
            ],
            "min": [
                0
            ]
        }
    ],
    "buffers": [
        {
            "byteLength": 748776,
            "uri": "result.bin"
        }
    ],
    "bufferViews": [
        {
            "buffer": 0,
            "byteOffset": 0,
            "byteLength": 320904,
            "target": 34962
        },
        {
            "buffer": 0,
            "byteOffset": 320904,
            "byteLength": 320904,
            "target": 34962
        },
        {
            "buffer": 0,
            "byteOffset": 641808,
            "byteLength": 106968,
            "target": 34963
        }
    ],
    "materials": [
        {
            "name": "DefaultMaterial",
            "pbrMetallicRoughness": {
                "metallicFactor": 0.0
            }
        }
    ],
    "meshes": [
        {
            "primitives": [
                {
                    "mode": 4,
                    "material": 0,
                    "indices": 2,
                    "attributes": {
                        "POSITION": 0,
                        "NORMAL": 1
                    }
                }
            ]
        }
    ],
    "nodes": [
        {
            "name": "<STL_BINARY>",
            "children": [
                1
            ]
        },
        {
            "name": "node",
            "mesh": 0
        }
    ],
    "scenes": [
        {
            "nodes": [
                0
            ]
        }
    ],
    "scene": 0
}